<?xml version="1.0" encoding="UTF-8"?>
<svg id="_图层_2" data-name="图层 2" xmlns="http://www.w3.org/2000/svg" viewBox="0 0 340.68 107.86">
  <defs>
    <style>
      .cls-1 {
        fill: #fff;
      }
    </style>
  </defs>
  <g id="_图层_1-2" data-name="图层 1">
    <g>
      <path class="cls-1" d="M26.94,19.36c0,8.56-4.36,16.66-12.27,22.8C5.21,49.51,0,59.35,0,69.87c0,6.92,2.27,13.54,6.5,19.36H14.63c-5.45-5.59-8.4-12.31-8.4-19.36,0-8.56,4.36-16.66,12.27-22.8,9.46-7.35,14.67-17.19,14.67-27.72,0-6.92-2.27-13.54-6.5-19.36h-8.13c5.45,5.59,8.4,12.31,8.4,19.36Z"/>
      <path class="cls-1" d="M43.87,74.2c.07,5.53,3.8,10.71,9.75,10.71,4.77,0,7.33-2.42,9.68-6.29l5.25,2.97c-3.04,5.6-8.71,8.85-15,8.85-9.88,0-15.9-7.47-15.9-17s5.32-17.42,15.76-17.42,15.14,7.6,15.14,17.21v.97h-24.68Zm18.46-4.7c-.76-4.84-3.94-8.09-8.92-8.09s-8.43,3.46-9.19,8.09h18.11Z"/>
      <path class="cls-1" d="M104.22,89.34h-6.22v-5.05h-.14c-2.49,3.66-6.36,6.15-10.99,6.15-9.88,0-15.48-8.23-15.48-17.49s5.88-16.94,15.28-16.94c4.77,0,8.64,2.49,11.2,6.36h.14v-5.39h6.22v32.35Zm-5.88-16.18c0-6.29-3.8-11.61-10.51-11.61s-10.23,5.6-10.23,11.61,3.66,11.75,10.23,11.75,10.51-5.39,10.51-11.75Z"/>
      <path class="cls-1" d="M118.8,89.34h-6.22V29.34h6.22v60Z"/>
      <path class="cls-1" d="M134.77,89.34h-6.22v-26.54h-3.39v-5.81h3.39v-12.37h6.22v12.37h6.08v5.81h-6.08v26.54Z"/>
      <path class="cls-1" d="M150.46,29.34V61.34h.14c1.94-3.46,5.81-5.32,9.75-5.32,9.12,0,11.47,6.15,11.47,14.03v19.29h-6.22v-18.53c0-5.53-.76-9.26-7.12-9.26-8.02,0-8.02,7.05-8.02,12.93v14.86h-6.22V29.34h6.22Z"/>
      <path class="cls-1" d="M243.36,62.38h.14c2.56-3.87,6.43-6.36,11.27-6.36,9.33,0,15.21,8.09,15.21,16.94s-5.53,17.49-15.48,17.49c-4.56,0-8.5-2.49-10.99-6.15h-.14v23.57h-6.22V56.99h6.22v5.39Zm20.39,10.78c0-6.29-3.8-11.61-10.51-11.61s-10.23,5.6-10.23,11.61,3.66,11.75,10.23,11.75,10.51-5.39,10.51-11.75Z"/>
      <path class="cls-1" d="M283.17,89.34h-6.22v-26.54h-3.39v-5.81h3.39v-12.37h6.22v12.37h6.08v5.81h-6.08v26.54Z"/>
      <path class="cls-1" d="M301.42,42.19c0,2.35-1.94,4.22-4.29,4.22s-4.29-1.87-4.29-4.22,1.94-4.36,4.29-4.36,4.29,1.94,4.29,4.36Z"/>
      <rect class="cls-1" x="294.03" y="56.99" width="6.22" height="32.35"/>
      <path class="cls-1" d="M307.78,56.99h7.33l7.67,10.44,8.36-10.44h7.53l-11.89,14.79,13.89,17.56h-7.26l-10.65-13.13-10.3,13.13h-7.53l14.45-17.56-11.61-14.79Z"/>
      <path class="cls-1" d="M201.61,87.49c-10.34-1.54-18.25-10.61-18.25-21.31s7.81-19.79,18.25-21.32v-5.46c-13.43,1.55-24.05,12.97-24.05,26.84s10.63,25.19,24.05,26.71v-5.47Z"/>
      <path class="cls-1" d="M207.83,39.41v5.46c10.43,1.52,18.25,10.55,18.25,21.32s-7.91,19.76-18.25,21.31v5.47c13.43-1.52,24.05-12.77,24.05-26.71s-10.63-25.3-24.05-26.84Z"/>
      <path class="cls-1" d="M14.63,0H6.5C2.27,5.82,0,12.44,0,19.36c0,10.52,5.21,20.37,14.67,27.72,7.91,6.14,12.27,14.24,12.27,22.8,0,7.04-2.95,13.77-8.4,19.36h8.13c4.23-5.82,6.5-12.44,6.5-19.36,0-10.52-5.21-20.37-14.67-27.71-7.91-6.14-12.27-14.24-12.27-22.8C6.22,12.31,9.18,5.59,14.63,0Z"/>
    </g>
  </g>
</svg>