<?xml version="1.0" encoding="UTF-8"?>
<svg xmlns="http://www.w3.org/2000/svg" viewBox="480 430 360 980" fill="none">
  <path fill="#003d70" d="M 553.5,464.5 C 580.835,464.333 608.169,464.5 635.5,465C 588.346,512.482 560.846,569.648 553,636.5C 549.131,699.707 565.465,757.04 602,808.5C 616.824,829.829 634.324,848.829 654.5,865.5C 704.934,822.507 737.434,768.507 752,703.5C 764.581,623.602 745.581,552.269 695,489.5C 688.068,481.311 680.901,473.311 673.5,465.5C 700.833,464.167 728.167,464.167 755.5,465.5C 820.938,557.812 835.771,657.812 800,765.5C 778.635,820.073 746.468,867.24 703.5,907C 756.825,955.791 792.658,1015.29 811,1085.5C 831.107,1181.64 812.607,1269.47 755.5,1349C 728.167,1349.67 700.833,1349.67 673.5,1349C 708.083,1314.03 732.583,1272.86 747,1225.5C 764.785,1158.45 757.119,1094.45 724,1033.5C 705.471,1001.46 682.305,973.129 654.5,948.5C 602.455,992.23 569.622,1047.56 556,1114.5C 544.929,1189.59 562.262,1257.26 608,1317.5C 616.421,1328.59 625.588,1339.09 635.5,1349C 608.167,1349.67 580.833,1349.67 553.5,1349C 488.037,1257.37 472.87,1157.87 508,1050.5C 529.186,994.957 561.686,947.124 605.5,907C 543.258,850.702 505.425,780.869 492,697.5C 482.444,611.704 502.944,534.037 553.5,464.5 Z"/>
</svg>
