<?xml version="1.0" encoding="UTF-8"?>
<!DOCTYPE svg PUBLIC "-//W3C//DTD SVG 1.1//EN" "http://www.w3.org/Graphics/SVG/1.1/DTD/svg11.dtd">
<svg xmlns="http://www.w3.org/2000/svg" version="1.1" width="4334px" height="2000px" style="shape-rendering:geometricPrecision; text-rendering:geometricPrecision; image-rendering:optimizeQuality; fill-rule:evenodd; clip-rule:evenodd" xmlns:xlink="http://www.w3.org/1999/xlink">
<g><path style="opacity:1" fill="#003d70" d="M 553.5,464.5 C 580.835,464.333 608.169,464.5 635.5,465C 588.346,512.482 560.846,569.648 553,636.5C 549.131,699.707 565.465,757.04 602,808.5C 616.824,829.829 634.324,848.829 654.5,865.5C 704.934,822.507 737.434,768.507 752,703.5C 764.581,623.602 745.581,552.269 695,489.5C 688.068,481.311 680.901,473.311 673.5,465.5C 700.833,464.167 728.167,464.167 755.5,465.5C 820.938,557.812 835.771,657.812 800,765.5C 778.635,820.073 746.468,867.24 703.5,907C 756.825,955.791 792.658,1015.29 811,1085.5C 831.107,1181.64 812.607,1269.47 755.5,1349C 728.167,1349.67 700.833,1349.67 673.5,1349C 708.083,1314.03 732.583,1272.86 747,1225.5C 764.785,1158.45 757.119,1094.45 724,1033.5C 705.471,1001.46 682.305,973.129 654.5,948.5C 602.455,992.23 569.622,1047.56 556,1114.5C 544.929,1189.59 562.262,1257.26 608,1317.5C 616.421,1328.59 625.588,1339.09 635.5,1349C 608.167,1349.67 580.833,1349.67 553.5,1349C 488.037,1257.37 472.87,1157.87 508,1050.5C 529.186,994.957 561.686,947.124 605.5,907C 543.258,850.702 505.425,780.869 492,697.5C 482.444,611.704 502.944,534.037 553.5,464.5 Z"/></g>
<g><path style="opacity:1" fill="#003d70" d="M 1605.5,755.5 C 1626.5,755.5 1647.5,755.5 1668.5,755.5C 1668.5,954.167 1668.5,1152.83 1668.5,1351.5C 1647.5,1351.5 1626.5,1351.5 1605.5,1351.5C 1605.5,1152.83 1605.5,954.167 1605.5,755.5 Z"/></g>
<g><path style="opacity:1" fill="#003d70" d="M 1919.5,755.5 C 1940.5,755.5 1961.5,755.5 1982.5,755.5C 1982.33,860.834 1982.5,966.167 1983,1071.5C 2003.53,1040.14 2032.7,1022.97 2070.5,1020C 2100.25,1017.28 2127.58,1023.94 2152.5,1040C 2173.72,1058.25 2186.22,1081.42 2190,1109.5C 2191.47,1117.44 2192.47,1125.44 2193,1133.5C 2193.5,1206.17 2193.67,1278.83 2193.5,1351.5C 2172.83,1351.5 2152.17,1351.5 2131.5,1351.5C 2131.67,1284.83 2131.5,1218.17 2131,1151.5C 2131.04,1092.55 2101.87,1067.72 2043.5,1077C 2014.89,1081.94 1996.73,1098.44 1989,1126.5C 1985.7,1138.96 1983.7,1151.63 1983,1164.5C 1982.5,1226.83 1982.33,1289.17 1982.5,1351.5C 1961.5,1351.5 1940.5,1351.5 1919.5,1351.5C 1919.5,1152.83 1919.5,954.167 1919.5,755.5 Z"/></g>
<g><path style="opacity:1" fill="#003d70" d="M 3428.5,839.5 C 3454.07,837.854 3470.57,849.187 3478,873.5C 3481.2,892.583 3475.03,907.749 3459.5,919C 3435.63,930.694 3415.46,926.194 3399,905.5C 3387.97,882.109 3392.47,862.275 3412.5,846C 3417.74,843.315 3423.08,841.148 3428.5,839.5 Z"/></g>
<g><path style="opacity:1" fill="#003d70" d="M 2488.5,854.5 C 2489.5,872.993 2489.83,891.659 2489.5,910.5C 2424.92,920.956 2375.09,953.622 2340,1008.5C 2305.41,1068.06 2299.41,1130.4 2322,1195.5C 2353.11,1271.3 2408.94,1316.63 2489.5,1331.5C 2489.5,1349.83 2489.5,1368.17 2489.5,1386.5C 2392.33,1373.8 2321.17,1324.13 2276,1237.5C 2238.56,1153.88 2241.23,1071.54 2284,990.5C 2330.59,913.127 2398.76,867.794 2488.5,854.5 Z"/></g>
<g><path style="opacity:1" fill="#003d70" d="M 2550.5,854.5 C 2636.49,866.729 2702.99,909.063 2750,981.5C 2793.82,1056.69 2801.16,1135.36 2772,1217.5C 2744.64,1285.2 2697.8,1334.36 2631.5,1365C 2605.7,1376.7 2578.7,1383.87 2550.5,1386.5C 2550.5,1368.17 2550.5,1349.83 2550.5,1331.5C 2630.32,1316.51 2685.82,1271.51 2717,1196.5C 2743.86,1116.79 2730.86,1044.46 2678,979.5C 2643.92,941.205 2601.42,918.205 2550.5,910.5C 2550.5,891.833 2550.5,873.167 2550.5,854.5 Z"/></g>
<g><path style="opacity:1" fill="#003d70" d="M 1763.5,906.5 C 1784.5,906.5 1805.5,906.5 1826.5,906.5C 1826.5,947.5 1826.5,988.5 1826.5,1029.5C 1846.5,1029.5 1866.5,1029.5 1886.5,1029.5C 1886.5,1048.83 1886.5,1068.17 1886.5,1087.5C 1866.5,1087.5 1846.5,1087.5 1826.5,1087.5C 1826.5,1175.5 1826.5,1263.5 1826.5,1351.5C 1805.5,1351.5 1784.5,1351.5 1763.5,1351.5C 1763.5,1263.5 1763.5,1175.5 1763.5,1087.5C 1752.5,1087.5 1741.5,1087.5 1730.5,1087.5C 1730.5,1068.17 1730.5,1048.83 1730.5,1029.5C 1741.5,1029.5 1752.5,1029.5 1763.5,1029.5C 1763.5,988.5 1763.5,947.5 1763.5,906.5 Z"/></g>
<g><path style="opacity:1" fill="#003d70" d="M 3235.5,906.5 C 3256.5,906.5 3277.5,906.5 3298.5,906.5C 3298.5,947.5 3298.5,988.5 3298.5,1029.5C 3318.5,1029.5 3338.5,1029.5 3358.5,1029.5C 3358.5,1048.83 3358.5,1068.17 3358.5,1087.5C 3338.5,1087.5 3318.5,1087.5 3298.5,1087.5C 3298.5,1175.5 3298.5,1263.5 3298.5,1351.5C 3277.5,1351.5 3256.5,1351.5 3235.5,1351.5C 3235.5,1263.5 3235.5,1175.5 3235.5,1087.5C 3224.17,1087.5 3212.83,1087.5 3201.5,1087.5C 3201.5,1068.17 3201.5,1048.83 3201.5,1029.5C 3212.83,1029.5 3224.17,1029.5 3235.5,1029.5C 3235.5,988.5 3235.5,947.5 3235.5,906.5 Z"/></g>
<g><path style="opacity:1" fill="#003d70" d="M 1007.5,1019.5 C 1100.75,1018.58 1154.25,1064.25 1168,1156.5C 1169.52,1171.13 1170.35,1185.79 1170.5,1200.5C 1088.83,1200.5 1007.17,1200.5 925.5,1200.5C 926.212,1237.42 940.878,1267.25 969.5,1290C 999.405,1308.52 1030.74,1311.19 1063.5,1298C 1075.86,1291.9 1086.69,1283.73 1096,1273.5C 1103.9,1264.03 1111.07,1254.03 1117.5,1243.5C 1135.3,1253.47 1152.96,1263.63 1170.5,1274C 1137.19,1330.76 1087.35,1360.26 1021,1362.5C 943.828,1359.77 893.495,1321.77 870,1248.5C 858.25,1201 860.917,1154.34 878,1108.5C 903.259,1052.94 946.426,1023.27 1007.5,1019.5 Z M 1007.5,1074.5 C 1062.91,1072.2 1096.24,1098.2 1107.5,1152.5C 1048.17,1153.5 988.837,1153.83 929.5,1153.5C 935.142,1119.69 953.476,1095.53 984.5,1081C 992.092,1078.07 999.759,1075.91 1007.5,1074.5 Z"/></g>
<g><path style="opacity:1" fill="#003d70" d="M 1338.5,1019.5 C 1391.14,1017.9 1431.97,1038.9 1461,1082.5C 1461.5,1064.84 1461.67,1047.17 1461.5,1029.5C 1482.17,1029.5 1502.83,1029.5 1523.5,1029.5C 1523.5,1136.83 1523.5,1244.17 1523.5,1351.5C 1502.83,1351.5 1482.17,1351.5 1461.5,1351.5C 1461.83,1334.82 1461.5,1318.15 1460.5,1301.5C 1418.7,1357.49 1364.36,1374.65 1297.5,1353C 1253.99,1335.15 1224.49,1303.99 1209,1259.5C 1195.27,1217.56 1193.94,1175.22 1205,1132.5C 1218.86,1084.65 1248.36,1050.49 1293.5,1030C 1308.16,1024.42 1323.16,1020.92 1338.5,1019.5 Z M 1351.5,1075.5 C 1403.28,1073.5 1438.45,1096.5 1457,1144.5C 1469.52,1183.92 1466.19,1221.92 1447,1258.5C 1421.19,1296.78 1385.36,1311.95 1339.5,1304C 1304.97,1295.14 1281.47,1273.97 1269,1240.5C 1254.66,1200.64 1257.32,1161.97 1277,1124.5C 1294.02,1096.24 1318.86,1079.91 1351.5,1075.5 Z"/></g>
<g><path style="opacity:1" fill="#003d70" d="M 3006.5,1019.5 C 3084.02,1020.52 3134.85,1057.85 3159,1131.5C 3172.5,1181.47 3168.84,1230.13 3148,1277.5C 3120.24,1332.36 3075.4,1360.69 3013.5,1362.5C 2966.76,1360.2 2930.26,1339.87 2904,1301.5C 2903.5,1379.17 2903.33,1456.83 2903.5,1534.5C 2882.5,1534.5 2861.5,1534.5 2840.5,1534.5C 2840.5,1366.17 2840.5,1197.83 2840.5,1029.5C 2861.5,1029.5 2882.5,1029.5 2903.5,1029.5C 2903.33,1047.17 2903.5,1064.84 2904,1082.5C 2928.18,1045.32 2962.35,1024.32 3006.5,1019.5 Z M 2991.5,1075.5 C 3043.28,1073.5 3078.45,1096.5 3097,1144.5C 3109.51,1183.92 3106.17,1221.92 3087,1258.5C 3061.19,1296.78 3025.36,1311.95 2979.5,1304C 2944.97,1295.14 2921.47,1273.97 2909,1240.5C 2894.56,1200.63 2897.23,1161.97 2917,1124.5C 2934.02,1096.24 2958.86,1079.91 2991.5,1075.5 Z"/></g>
<g><path style="opacity:1" fill="#003d70" d="M 3404.5,1029.5 C 3425.5,1029.5 3446.5,1029.5 3467.5,1029.5C 3467.5,1136.83 3467.5,1244.17 3467.5,1351.5C 3446.5,1351.5 3425.5,1351.5 3404.5,1351.5C 3404.5,1244.17 3404.5,1136.83 3404.5,1029.5 Z"/></g>
<g><path style="opacity:1" fill="#003d70" d="M 3540.5,1030.5 C 3565.34,1029.17 3590.34,1029.17 3615.5,1030.5C 3640.15,1064.47 3665.15,1098.14 3690.5,1131.5C 3717.71,1097.58 3745.05,1063.74 3772.5,1030C 3797.83,1029.33 3823.17,1029.33 3848.5,1030C 3809.14,1078.56 3770.14,1127.39 3731.5,1176.5C 3777.17,1234.5 3822.83,1292.5 3868.5,1350.5C 3844.17,1351.67 3819.84,1351.83 3795.5,1351C 3760.33,1307.83 3725.17,1264.67 3690,1221.5C 3656.17,1264.67 3622.33,1307.83 3588.5,1351C 3563.16,1351.83 3537.83,1351.67 3512.5,1350.5C 3560.17,1292.5 3607.83,1234.5 3655.5,1176.5C 3617.63,1127.4 3579.3,1078.73 3540.5,1030.5 Z"/></g>
</svg>
